<svg width="39" height="39" viewBox="0 0 39 39" fill="none" xmlns="http://www.w3.org/2000/svg">
<g clip-path="url(#clip0_1_33)">
<path d="M34.4966 3.93117C33.6962 3.10976 32.5117 2.80374 31.4073 3.12586L5.65275 10.6152C4.48747 10.939 3.66153 11.8683 3.43904 13.0489C3.21175 14.2504 4.00567 15.7757 5.0429 16.4135L13.0958 21.3629C13.9217 21.8702 14.9878 21.743 15.6712 21.0537L24.8926 11.7749C25.3568 11.2917 26.1251 11.2917 26.5893 11.7749C27.0535 12.242 27.0535 12.999 26.5893 13.4821L17.3519 22.7625C16.6669 23.4503 16.5388 24.5213 17.043 25.3524L21.9634 33.486C22.5397 34.4524 23.5321 35 24.6205 35C24.7486 35 24.8926 35 25.0207 34.9839C26.2692 34.8228 27.2616 33.9692 27.6297 32.7612L35.2649 7.03967C35.601 5.94445 35.2969 4.75259 34.4966 3.93117" fill="#FCD000"/>
</g>
<defs>
<clipPath id="clip0_1_33">
<rect width="38.4" height="38.4" fill="white"/>
</clipPath>
</defs>
</svg>
