<svg width="39" height="39" viewBox="0 0 39 39" fill="none" xmlns="http://www.w3.org/2000/svg">
<g clip-path="url(#clip0_1_33)">
<path fill-rule="evenodd" clip-rule="evenodd" d="M18.765 35.0619C18.9422 35.1544 19.1403 35.2015 19.3384 35.1999C19.5365 35.1984 19.7331 35.1497 19.9118 35.0556L25.6205 32.004C27.2393 31.141 28.507 30.1761 29.496 29.0527C31.6464 26.6051 32.8206 23.4813 32.7997 20.2602L32.7321 9.63519C32.7256 8.41139 31.9218 7.31939 30.7331 6.92244L20.1132 3.35931C19.4737 3.1428 18.773 3.1475 18.1448 3.3703L7.56521 7.06051C6.3829 7.47315 5.59362 8.57299 5.60006 9.79836L5.66771 20.4156C5.68865 23.6414 6.90318 26.7511 9.08901 29.1735C10.0877 30.2812 11.3667 31.232 13.0032 32.0808L18.765 35.0619ZM17.2538 22.5743C17.4922 22.8034 17.8014 22.9163 18.1107 22.9132C18.42 22.9116 18.7276 22.7955 18.9628 22.5633L25.2013 16.413C25.6701 15.9501 25.6653 15.2064 25.1917 14.7499C24.7165 14.2933 23.9514 14.2964 23.4826 14.7593L18.093 20.0718L15.8862 17.9506C15.411 17.494 14.6475 17.4987 14.1772 17.9615C13.7084 18.4244 13.7133 19.1681 14.1884 19.6246L17.2538 22.5743Z" fill="#FCD000"/>
</g>
<defs>
<clipPath id="clip0_1_33">
<rect width="38.4" height="38.4" fill="white"/>
</clipPath>
</defs>
</svg>
