<svg width="39" height="39" viewBox="0 0 39 39" fill="none" xmlns="http://www.w3.org/2000/svg">
<g clip-path="url(#clip0_1_33)">
<path d="M28.6696 22.9122C28.2552 23.3138 28.0648 23.8946 28.1592 24.4642L29.5816 32.3362C29.7016 33.0034 29.42 33.6786 28.8616 34.0642C28.3144 34.4642 27.5864 34.5122 26.9896 34.1922L19.9032 30.4962C19.6568 30.365 19.3832 30.2946 19.1032 30.2866H18.6696C18.5192 30.309 18.372 30.357 18.2376 30.4306L11.1496 34.1442C10.7992 34.3202 10.4024 34.3826 10.0136 34.3202C9.0664 34.141 8.4344 33.2386 8.5896 32.2866L10.0136 24.4146C10.108 23.8402 9.9176 23.2562 9.5032 22.8482L3.7256 17.2482C3.2424 16.7794 3.0744 16.0754 3.2952 15.4402C3.5096 14.8066 4.0568 14.3442 4.7176 14.2402L12.6696 13.0866C13.2744 13.0242 13.8056 12.6562 14.0776 12.1122L17.5816 4.92818C17.6648 4.76818 17.772 4.62098 17.9016 4.49618L18.0456 4.38418C18.1208 4.30098 18.2072 4.23218 18.3032 4.17618L18.4776 4.11218L18.7496 4.00018H19.4232C20.0248 4.06258 20.5544 4.42258 20.8312 4.96018L24.3816 12.1122C24.6376 12.6354 25.1352 12.9986 25.7096 13.0866L33.6616 14.2402C34.3336 14.3362 34.8952 14.8002 35.1176 15.4402C35.3272 16.0818 35.1464 16.7858 34.6536 17.2482L28.6696 22.9122Z" fill="#FCD000"/>
</g>
<defs>
<clipPath id="clip0_1_33">
<rect width="38.4" height="38.4" fill="white"/>
</clipPath>
</defs>
</svg>
